<svg xmlns="http://www.w3.org/2000/svg" viewBox="0 0 499 499">
  <defs>
    <style>.fixed{fill:#8c6239;}.secondaryHairColor{fill:current;}.primaryHairColor{fill:currentColor;}.blank{fill:none;}</style>
  </defs>
  <g id="Layer_2" data-name="Layer 2">
    <g id="Layer_4" data-name="Layer 4">
      <path class="fixed" d="M415,177.55v72.53l-20.18-.23c-10.11.22-14.72-6-15-17.3v-31.9c0-8.44-7.7-20.9-23.1-20.9H143.3c-15.4,0-23.09,12.46-23.1,20.9v31.9c-.31,11.28-4.92,17.52-15,17.3L85,250.08V177.55c0-45.57,14.9-55.71,47.3-57,2.8-.12,232.54-.12,235.35,0C400,121.84,415,132,415,177.55Z" />
      <path class="secondaryHairColor" d="M426,86.25c-1.27,76.72-47.3,93.5-81.4,93.5H191.7c1.44-23.49,22-49.5,40.7-50.6,74.8-5.5,182.67-82.14,182-114.4C422.56,35.12,425.5,59.7,426,86.25Z" />
      <path class="primaryHairColor" d="M414.4,14.75c.67,32.26-107.2,108.9-182,114.4-18.7,1.1-39.26,27.11-40.7,50.6H155.4c-26.4-.58-34.1-16.5-34.1-34.1V118.34c0-32.09,34.1-67.29,73.7-70.59C335.8,40.05,389.4,31,414.4,14.75Z" />
    </g>
    <g id="Layer_5" data-name="Layer 5">
      <rect class="blank" width="499" height="499" />
    </g>
  </g>
</svg>