<svg xmlns="http://www.w3.org/2000/svg" viewBox="0 0 500 500">
  <defs>
    <style>.primaryHairColor{fill:currentColor;}.secondaryHairColor{fill:current;}.blank{fill:none;}</style>
  </defs>
  <g id="Layer_2" data-name="Layer 2">
    <g id="Layer_4" data-name="Layer 4">
      <path class="primaryHairColor" d="M85,253c0-.51,0-12.89,0-15.78,0-1.45,0-2.88,0-4.33A105,105,0,0,1,85.94,220a65.28,65.28,0,0,1,1.77-8.53,58.92,58.92,0,0,1,1.92-5.62,54.34,54.34,0,0,1,2.46-5.3c.6-1.15,1.25-2.26,1.92-3.36s1.39-2.18,2.14-3.23c.57-.79,1.14-1.57,1.75-2.34a66.48,66.48,0,0,1,5.91-6.59,7.78,7.78,0,0,1,3.37-2.26,3.56,3.56,0,0,1,1.18-.09,6.34,6.34,0,0,1,3,1.33c.09.07.19.12.28.2a38.9,38.9,0,0,0,3.45,2.29,52.53,52.53,0,0,0,9.48,4.27c.91.32,1.84.62,2.77.92,1.87.59,3.73,1.15,5.6,1.7a63.53,63.53,0,0,0,9.61.41,82.22,82.22,0,0,0,20.94-3.65c2.29-.68,4.56-1.43,6.83-2.25a48.86,48.86,0,0,1,5.06-4.91c.65-.55,1.29-1.11,1.94-1.65l2.6-2.18a54.39,54.39,0,0,0,6.75-6.5,47.79,47.79,0,0,0,7.19-11.6c.61-1.4,1.17-2.82,1.66-4.28a57.85,57.85,0,0,0,3-18.3c0-1.89-.07-3.78-.25-5.66-.14-1.55-.33-3.1-.6-4.64l-.17-.94c-.26-1.37-.56-2.73-.92-4.07a56,56,0,0,0-2.84-8.27,52.22,52.22,0,0,0-3.79-7.12,48.6,48.6,0,0,0-4.89-6.47c-.6-.67-1.23-1.35-1.88-2s-1.32-1.28-2-1.89-1.4-1.2-2.13-1.78-1.35-1.12-2-1.71l-1.3-1.16c-.66-.59-1.32-1.16-2-1.7a16.81,16.81,0,0,0-2.35-1.56,14.18,14.18,0,0,0-1.3-.63c-.81-.33-1.62-.69-2.43-1.07-.61-.29-1.22-.58-1.85-.9-1.87-.91-3.84-1.93-6.1-3,.89-.54,1.79-1.06,2.69-1.56A62.86,62.86,0,0,1,179,76c.94-.21,1.89-.41,2.82-.57.51-.09,1-.18,1.52-.25a59.75,59.75,0,0,1,8.89-.67h.17c1.63,0,3.28.07,4.93.2a52.77,52.77,0,0,1,15.53,3.75c.71.29,1.4.58,2.11.89s1.58.73,2.37,1.12a73.59,73.59,0,0,1,8.3,4.79l.25.18c.3.23.6.49.91.75a9.48,9.48,0,0,0,1.22.94,2.52,2.52,0,0,0,1.32.43A2.31,2.31,0,0,0,230.8,87a2.12,2.12,0,0,0,.9-2,3,3,0,0,0-.16-.71,19.9,19.9,0,0,0-1-2.1,5.75,5.75,0,0,1-.27-.66A68.43,68.43,0,0,1,227.63,70c-2.29-16.32,2.23-31.36,13.07-45.2h0c2.28-2.91,4.68-6,8.53-7.19-22.24-1.51-29.14,1.93-32,4.8-3.56,3.57-7.22,6.77-9.47,11.08-.14.26-.59,1.25-1.51,1.42-1.14.22-2.3-1.16-3.38-1.72-24.47-12.66-51.1-4.9-64.57,19-1.54,2.73-2.35,3.78-5.78,2-15-7.94-30.52-1-34.74,15.33-.91,3.48-2,4.76-5.74,5.36C66.22,78.9,49,93,41.59,118.64,35.15,141,38.9,163.22,43,185.27c4.76,25.91,10.35,51.67,15.58,77.49C66,256,74,253,85,253Z" />
      <path class="secondaryHairColor" d="M240.73,24.74h0c-10.83,13.84-15.37,28.88-13.08,45.2a67.51,67.51,0,0,0,2.69,11.49,4.51,4.51,0,0,0,.26.66,21,21,0,0,1,1,2.11,3.7,3.7,0,0,1,.16.7,2.1,2.1,0,0,1-.9,2,2.31,2.31,0,0,1-1.47.58,2.52,2.52,0,0,1-1.32-.43,9.3,9.3,0,0,1-1.21-.93l-.92-.76-.25-.18a75.83,75.83,0,0,0-8.3-4.79c-.79-.4-1.57-.77-2.37-1.11s-1.4-.62-2.11-.89a52.38,52.38,0,0,0-15.53-3.75c-1.65-.13-3.29-.2-4.93-.21h-.17a59.55,59.55,0,0,0-8.89.67l-1.51.25c-1,.17-1.89.36-2.83.57a62.51,62.51,0,0,0-16.51,6.35c-.9.5-1.79,1-2.68,1.57,2.25,1.1,4.22,2.1,6.1,3l1.85.89c.81.38,1.62.74,2.43,1.07a12.85,12.85,0,0,1,1.29.63A18.07,18.07,0,0,1,173.84,91c.7.54,1.36,1.11,2,1.7l1.29,1.16c.66.59,1.32,1.17,2,1.71s1.44,1.17,2.13,1.78,1.36,1.24,2,1.89,1.27,1.31,1.87,2a49.33,49.33,0,0,1,4.9,6.47,53.41,53.41,0,0,1,3.78,7.13,55.57,55.57,0,0,1,2.85,8.26c.34,1.34.66,2.71.91,4.07l.17.94c.27,1.54.47,3.09.61,4.64.17,1.88.25,3.77.24,5.66a58.13,58.13,0,0,1-3,18.3c-.5,1.46-1.06,2.89-1.67,4.29a47.73,47.73,0,0,1-7.19,11.59,54.31,54.31,0,0,1-6.74,6.5l-2.61,2.18c-.66.54-1.3,1.1-1.94,1.65a53.25,53.25,0,0,0-5.06,4.91c20.82,8.4,39.94,4.87,57.5-8.5,3.73-2.84,6.26-5.56,12-2.54,11,5.79,22.87,5.14,34-.35,4-2,6.13-1.13,9.18,1.51,20.76,17.91,49.53,19.16,72,3.13,3.3-2.35,4.5-2.61,6.72,1.38,9.07,16.31,23.39,23.43,41.72,21.13,5.53-.69,7.2.64,8.73,5.57C415,217,414,241,415,253c8,0,18,2,26,9,5.75-35.41,8.46-71.4,9.94-107.24.86-20.7-7.38-35.91-23.16-47.39-7.9-5.75-12.11-11.57-14.25-21.8-7.62-36.44-43.69-55.1-78.54-42.1-2.94,1.1-4.71.86-7-1.2-16-14.46-34.15-19.07-54.74-11.21-3.17,1.21-5.2.72-7.32-2.12a29.1,29.1,0,0,0-16.69-11.42c-3.85,1.18-6.25,4.28-8.52,7.18Z" />
    </g>
    <g id="Layer_5" data-name="Layer 5">
      <rect class="blank" width="500" height="500" />
    </g>
  </g>
</svg>