<svg xmlns="http://www.w3.org/2000/svg" viewBox="0 0 499 499">
  <defs>
    <style>.primaryHairColor{fill:currentColor;}.secondaryHairColor{fill:current;}.blank{fill:none;}</style>
  </defs>
  <g id="Layer_2" data-name="Layer 2">
    <g id="Layer_4" data-name="Layer 4">
      <path class="secondaryHairColor" d="M206.93,197c.61.65,1.24,1.28,1.87,1.92a19.23,19.23,0,0,1,4.69,6.47,16.24,16.24,0,0,0,1.34-6.65c0-1.87-.11-3.75-.22-5.63a31.7,31.7,0,0,1,.07-5.6c.15-1.21-.49-2.79,1.06-3.43,1.18-.49,1.95.58,2.72,1.26,18.93,16.85,41.39,26.89,65,34.66,4.67,1.54,9.29,3.24,13.94,4.86,6.06.26,11.86,2,17.6,3.63,4.63,1.33,5.65-.11,5.59-4.51-.16-13.06-.05-26.13-.05-39.37,2.56.63,2.66,2.92,3.45,4.48,5.85,11.65,11.73,23.29,17.24,35.11,2,4.25,3.67,5.28,8.16,2.91,16.94-9,34.19-17.34,51.17-26.24,4.34-2.28,6.24-1.5,8.27,2.87,3.92,8.46,5.39,17.36,5.91,26.51.22,3.91.25,17.87.25,21.8a42.85,42.85,0,0,1,25,8c1.6-15.8,2.18-29.91,3.91-45.69,1.81-16.46,3.56-33,1.54-49.47-7.27-59.37-47.52-105.91-104.51-122.09C334.2,40.83,327.43,40,320.6,38c-58.08-16.69-111.7-9-165.15-1.87,2.08,56.74,16.78,111.23,49.24,158.1A24.62,24.62,0,0,0,207,197Z" />
      <path class="primaryHairColor" d="M85,252c.51-10-1.31-24.06.57-34.05,3.11-16.62,12.15-29.06,25.51-38.47,3.3-2.32,4.79-4.11,3.31-8.36-2-5.73-3.18-11.73-4.64-17.63-.55-2.19-2.23-4.93.78-6.28s5,.33,6.88,3.06a116.5,116.5,0,0,0,35.84,34.2,144,144,0,0,0,60.24,20.88,19,19,0,0,0-4.69-6.47c-.62-.64-1.25-1.27-1.87-1.92a21.83,21.83,0,0,1-2.26-2.73C172.2,147.36,157.51,92.87,155.43,36.14c-3.88,0-13.21,3.11-14.22,3.39-18.42,5.19-32,16.27-39.93,34.08-1.5,3.35-4.29,3.91-7,5-22.2,8.79-36.91,24.79-44.58,47.62C44.22,142.54,47,159,48.83,175.41,52.06,204.61,54.6,232.82,58,262,61,258,71,252,85,252Z" />
    </g>
    <g id="Layer_5" data-name="Layer 5">
      <rect class="blank" width="499" height="499" />
    </g>
  </g>
</svg>