<svg xmlns="http://www.w3.org/2000/svg" viewBox="0 0 499 499">
  <defs>
    <style>.blank{fill:none;}.primaryHairColor{fill:currentColor;}.flower1{fill:#ef5467;}.flower2{fill:#fe6574;}.secondaryHairColor{fill:current;}.flower3{fill:#bd455a;}.flower4{fill:#bc4459;}.flower5{fill:#6f453a;}.flower6{fill:#fefbfb;}.flower7{fill:#fe6473;}</style>
  </defs>
  <g id="Layer_2" data-name="Layer 2">
    <g id="Layer_4" data-name="Layer 4">
      <path class="primaryHairColor" d="M91.8,368.77c.86-36.92,5.17-73.37,19.59-107.86,14.1-33.73,37.24-58.61,71.64-72.43,8.85-3.55,17.39-7.9,26-12.13,20.22-10,41-18.89,59.8-31.62,15.28-10.34,27.37-23.18,35.72-39.58a64.48,64.48,0,0,1-3.52-8.6c-.21-.66-.38-1.3-.54-1.94a25.47,25.47,0,0,1-.67-3.69c-.07-.61-.11-1.2-.13-1.78-.25-7.79,3.76-14.57,12.83-24.27.22-9.6-.27-19.16-.84-28.73-.18-3.18-.38-6.37-.57-9.56-5.61-10.19-127.47-6.73-146.19,4.49-42.21,16.19-70,47-87.69,87.7C59.16,160.2,52.83,204,51.37,248.68A698,698,0,0,0,55,346.38c3.1,28.69,7.39,57.16,13.12,85.43.54,2.61,1.71,3.87,4,4.39,6.51,1.51,13,2.92,19.56,4.37,0-12-.11-23.94-.15-35.9s0-23.93.26-35.9Z" />
      <path class="secondaryHairColor" d="M204.37,226.51c30.51-10.9,61.95-18.37,93.05-27.14,17.82-5,35.1-11.19,51.47-19.83h0a25.53,25.53,0,0,0,5.32-4.31c.56-.53,1.13-1.06,1.71-1.55,2.33-2,4.92-3.49,8.66-3C388.52,174.1,407,190.49,413,214c2.64,10.38,2.07,27.4,2,38,11,0,17,2,25,8a921.6,921.6,0,0,0,5.64-110.82c-.12-13.87.2-27.78-2.78-41.45a53.26,53.26,0,0,1-6.61,4.93,30.66,30.66,0,0,1-4.48,2.32c-.65.27-1.31.53-2,.75a25.13,25.13,0,0,1-6.4,1.24,58.53,58.53,0,0,1,1.46,6c.07.37.14.74.2,1.11.17,1.07.31,2.1.42,3.11.12,1.38.18,2.71.17,4,0,.6,0,1.2-.08,1.79a27,27,0,0,1-.71,4.51c-1.41,5.75-4.76,10.46-10.07,14.37a28.17,28.17,0,0,1-37.17-3.13c-1.15-1.19-1.73-3.13-3.88-3.08-8.72,11.5-21.47,14.9-34.42,9.15-11.81-5.25-18.05-18.19-15.24-31.69.44-2.1,1.07-4.16,1.6-6.25A26.91,26.91,0,0,1,313,112.56c-.53-.33-1.05-.69-1.56-1.06a43.37,43.37,0,0,1-6.86-6.33c-8.36,16.41-20.44,29.25-35.73,39.58C250,157.49,229.22,166.38,209,176.38c-8.56,4.22-17.1,8.58-26,12.13-34.4,13.81-57.53,38.7-71.64,72.42C97,295.41,92.67,331.86,91.81,368.8c-.27,12-.31,23.93-.26,35.9s.15,23.94.15,35.89h0c6,1.63,12.14,3.11,18.14,4.93,4.11,1.24,5.5.49,5.65-4.21.6-18.4,1.68-36.79,2.59-55.18,2.48-28.53,6.85-56.68,14.35-84.41,10.38-38.39,35.22-62,72-75.17Z" />
      <path class="secondaryHairColor" d="M312.48,64.87h0c4.29-1.69,8.58-3.42,13.18-4.11a30.75,30.75,0,0,1-1.48-19.17c.15-.61.31-1.24.5-1.85a41.67,41.67,0,0,1,4-9.11h0a48.85,48.85,0,0,0-17.62-4l.57,9.55c.57,9.56,1.06,19.14.84,28.73Z" />
      <path class="flower1" d="M324.68,39.72c-.19.62-.35,1.23-.5,1.86a32.45,32.45,0,0,0-.84,5.62,31.57,31.57,0,0,0,2.32,13.54,86,86,0,0,0,13,15.31,58,58,0,0,0,16.92,10.83c2.45-7.16,5.6-11.85,9.86-14.31a15,15,0,0,1,1.9-.91c4.09-1.62,9.11-1.52,15.36.16A70,70,0,0,0,381,49.18c-.2-.81-.4-1.62-.63-2.43a75.57,75.57,0,0,0-2.35-7.2q-1.35-3.57-3-7.07c-4.95-5.77-11.3-9.45-18.26-12.2a15.39,15.39,0,0,0-10.44,0c-6.7,2-12.38,5.82-17.6,10.34h0a42.3,42.3,0,0,0-4,9.1Z" />
      <path class="flower1" d="M393.47,90.76c-4,14.55-12.87,19.39-27.47,15-.08,12.29,1.56,24.23,6.78,35.52a20.47,20.47,0,0,1,1,4.33c2.14,0,2.73,1.89,3.88,3.09a28.16,28.16,0,0,0,37.17,3.12c5.32-3.9,8.66-8.62,10.07-14.36a27,27,0,0,0,.71-4.51c0-.59.07-1.18.08-1.8a36.88,36.88,0,0,0-.17-4c-.1-1-.24-2-.42-3.1-.06-.37-.13-.73-.2-1.11a59.34,59.34,0,0,0-1.46-6c-7.89-11.11-17-20.87-29.92-26.2Z" />
      <path class="flower2" d="M381,49.18a70,70,0,0,1,1.73,22.64,21.33,21.33,0,0,1,8.34,8.33A23.78,23.78,0,0,1,393.5,87a53.21,53.21,0,0,0,14.79-9.09c.62-.53,1.23-1.06,1.83-1.62s1.36-1.27,2-1.93a108.7,108.7,0,0,0,11.23-13.56c5.17-15.17,2-27.58-9.38-35.24-3.15-2.13-6.81-3.51-10.24-5.25a11.21,11.21,0,0,0-10.44,0c-7.13,2.52-14,5.48-18.3,12.2,1.12,2.34,2.12,4.7,3,7.07s1.68,4.78,2.35,7.2c.22.81.43,1.62.62,2.43Z" />
      <path class="flower3" d="M410.11,76.26c-.6.56-1.2,1.09-1.83,1.62a53.15,53.15,0,0,1-14.8,9.1c0,1.26,0,2.52,0,3.79,12.95,5.34,22,15.08,29.92,26.2a25.48,25.48,0,0,0,6.4-1.24c.67-.22,1.33-.48,2-.75a30.66,30.66,0,0,0,4.48-2.32,53.26,53.26,0,0,0,6.61-4.93c15.57-21.82,1.25-45-19.5-47a108.74,108.74,0,0,1-11.23,13.55c-.66.66-1.33,1.31-2,1.94Z" />
      <path class="flower4" d="M332.54,107.88c.83-.93,1.67-1.83,2.54-2.71,1.16-1.18,2.34-2.31,3.57-3.4l.78-.64a66.68,66.68,0,0,1,7.22-5.46,68.62,68.62,0,0,1,8.9-4.89h0c0-1.29,0-2.59,0-3.87h0a57.61,57.61,0,0,1-16.92-10.84,86.3,86.3,0,0,1-13-15.3c-4.61.69-8.89,2.42-13.19,4.11h0c-9.06,9.7-13.07,16.48-12.82,24.28,0,.58.05,1.17.12,1.77a27.67,27.67,0,0,0,.68,3.7c.16.63.33,1.27.54,1.93a62.66,62.66,0,0,0,3.52,8.6,44.26,44.26,0,0,0,6.86,6.33c.51.37,1,.73,1.57,1.06a27,27,0,0,0,12.72,4.31,80.94,80.94,0,0,1,6.87-9Z" />
      <path class="flower6" d="M355.56,90.76A31.34,31.34,0,0,0,357.83,97a21.89,21.89,0,0,0,2.72,4.2,19.6,19.6,0,0,0,3.39,3.22,17.42,17.42,0,0,0,2.06,1.35c14.6,4.37,23.44-.47,27.47-15,0-1.27,0-2.53,0-3.79a23.66,23.66,0,0,0-2.43-6.83,21.33,21.33,0,0,0-8.34-8.33c-6.25-1.68-11.27-1.8-15.36-.16a16.56,16.56,0,0,0-1.9.91c-4.26,2.47-7.41,7.16-9.86,14.31h0l0,3.87Z" />
      <path class="flower7" d="M366,105.8a18.82,18.82,0,0,1-2.06-1.36,19.6,19.6,0,0,1-3.39-3.22,21.93,21.93,0,0,1-1.67-2.32A21.51,21.51,0,0,1,357.83,97a31.11,31.11,0,0,1-2.27-6.25,66.64,66.64,0,0,0-16.12,10.34l-.78.65c-1.23,1.09-2.42,2.23-3.57,3.4-.87.88-1.7,1.78-2.53,2.71a79.81,79.81,0,0,0-6.88,9h0c-.54,2.09-1.17,4.15-1.59,6.25-2.82,13.5,3.43,26.44,15.23,31.69,12.95,5.75,25.7,2.35,34.42-9.16a19.87,19.87,0,0,0-.95-4.33c-5.22-11.29-6.85-23.23-6.78-35.52Z" />
    </g>
    <g id="Layer_5" data-name="Layer 5">
      <rect class="blank" width="499" height="499" />
    </g>
  </g>
</svg>