<svg xmlns="http://www.w3.org/2000/svg" viewBox="0 0 499 499">
  <defs>
    <style>.primaryHairColor{fill:currentColor;}.secondaryHairColor{fill:current;}.blank{fill:none;}</style>
  </defs>
  <g id="Layer_2" data-name="Layer 2">
    <g id="Layer_4" data-name="Layer 4">
      <path class="secondaryHairColor" d="M200,80.66a265.2,265.2,0,0,0-29.51,67.81,250,250,0,0,0-9.27,54.36c-.52,9.67-1.2,19.29-1,29,26.83-.28,53.57-2.35,80.31-4.32,10.69-.78,21.31-2.48,32-3.68,2.76-.31,4.7-1.89,6.78-3.44,9.45-7,18.94-13.92,29.65-21.79v.14a1.33,1.33,0,0,1,.19-.14c0,6.33.06,11.18,0,16,0,2.12.37,3.05,1.88,3.17a8.66,8.66,0,0,0,1.72-.13c7.42-1.19,14.52-4,22.11-4.13,19.24-6.12,39.16-10.44,56.81-20.86a4.18,4.18,0,0,1,1.86-.66c1.47-.19,2.36.86,3.6,2.15,14.12,14.64,15.47,40.6,15.47,40.6,3.14,32.72,4.71,49.08,4.58,55-.88,41.05-1.42,66.09-18.72,87.06-8,9.65-15.87,16.93-27.52,21.89-16.62,7.08-33.36,13.87-50,20.79h0v25.22a344.34,344.34,0,0,0,42.22-8.57c45.46-12.18,87.59-31.09,124-61.54,4-3.37,4.67-6.17,2.88-10.91-16.06-42.4-24.18-86.59-29.59-131.42-3.46-28.67-7.66-57.18-18-84.47-24.23-64.15-69.28-103.4-137-116.18-22.1-4.66-58.14-6.43-60.88-6.57,0,0-1.13,2.88-5.19,6.92C224.15,47,211.15,62.66,200,80.66Z" />
      <path class="primaryHairColor" d="M155.78,408.08c-5.69-2.27-11.4-4.5-17-6.85-14.49-6-26.15-14.51-34.28-26.06-3.81-5.4-6.82-11.26-11-25.61C87.57,329,81.26,307.13,82.22,276.41c.58-18.91,1.17-38,12-59.64A112.76,112.76,0,0,1,114.85,188c0,13.06.29,25.66-.14,38.25-.18,5.57,1.66,7,6.94,6.69,12.86-.82,25.81,1,38.65-1.12h0c-.22-9.68.46-19.31,1-29a249.56,249.56,0,0,1,9.28-54.37,264.44,264.44,0,0,1,29.51-67.8c11.11-18,24.11-33.65,39.33-48.73,4.08-4,5.18-6.87,5.19-6.92h-.2c-2.33.17-26.52,1.91-41.18,5.56C134.71,47.65,86.79,81.28,61.63,147c-11.26,29.45-15.29,60.33-19.06,91.23-5.24,42.78-13.51,84.81-28.73,125.26-1.92,5.11-.89,8,3.23,11.43,24.28,20.1,51.35,35.32,80.51,47,27.65,11.08,56.33,18.29,85.68,23q.23-12.22.48-24.44a287.23,287.23,0,0,0-28-12.49Z" />
    </g>
    <g id="Layer_5" data-name="Layer 5">
      <rect class="blank" width="499" height="499" />
    </g>
  </g>
</svg>