<svg xmlns="http://www.w3.org/2000/svg" viewBox="0 0 499 499">
  <defs>
    <style>.primaryHairColor{fill:currentColor;}.secondaryHairColor{fill:current;}.blank{fill:none;}</style>
  </defs>
  <g id="Layer_2" data-name="Layer 2">
    <g id="Layer_4" data-name="Layer 4">
      <path class="secondaryHairColor" d="M292.42,43.51c-39,35.22-70.91,76.2-97.7,121.33q-9.84,16.57-18.64,33.68c-1.07,2.09-2.3,4.15-2,6.66,3.07-.29,4.63.31,2.74,3.81-2.65,4.91-4.91,10-7.56,14.92-1.44,2.65-1.1,4.12,1.75,5.42,5.65,2.6,11.28,5.29,16.68,8.34,4.16,2.36,7.07-.18,10-2a330.77,330.77,0,0,0,62.65-49.07c3.92-4,7.76-8,13-13.39V202.6c.07,6.45.31,12.89.15,19.33-.08,3.68.67,5.6,4.95,5.24,12.25-1,24.28-2.77,35.7-7.64,4.65-2,7.41-4.92,8.53-10.23,2.47-11.75,5.74-23.32,8.7-35,.3-1.17.79-2.28,1.5-4.31,5.74,14.44,11,27.95,16.46,41.37,2.09,5.14,3.44,12.49,7.34,14.47,4.2,2.14,9.55-4.24,14.77-5.88,7.39-2.33,9.41-7.05,8.92-14.5-.67-10.05-.17-20.17-.17-31.27,12.11,4.63,20.12,12.81,26.45,22.88s8.18,21.33,8.37,32.9c.08,5.38,0,17,0,22,6,0,15,0,24,7,1.25-24.21,3-50.73,4.3-74.94.64-12.45,1.15-25-1.34-37.21-9.92-49-38-82.8-84.92-100.8a142.61,142.61,0,0,0-28.19-7.33c-11-1.82-22.37,0-33.54,0,.05,2.2-1.47,3.5-2.89,4.79Z" />
      <path class="primaryHairColor" d="M85,252c1-12-1.45-30.32,2.6-41.77.07-.2.05-.43.11-.63,4.69-17,7.28-18.24,22.73-10.49,9.75,4.88,19.54,9.73,29.24,14.7,2.82,1.45,5.36,1.94,8.52.7,8.52-3.35,17.61-5.13,25.84-9.32-.27-2.51.94-4.57,2-6.66q8.82-17.13,18.64-33.68c26.79-45.13,58.65-86.1,97.7-121.33,1.42-1.29,2.94-2.58,2.89-4.79-41.71,0-83.87-6.14-125.13,0a150.91,150.91,0,0,0-32.26,9.07C90.56,66.16,56.58,115.3,56.68,166.11c.06,31.11,3.27,62.09,4.12,93.17C70,253,77,251,85,252Z" />
    </g>
    <g id="Layer_5" data-name="Layer 5">
      <rect class="blank" width="499" height="499" />
    </g>
  </g>
</svg>