<svg xmlns="http://www.w3.org/2000/svg" viewBox="0 0 500 500">
  <defs>
    <style>.hat1{fill:#fe4f4f;}.hat2{fill:#f13f44;}.hat3{fill:#c94045;}.blank{fill:none;}</style>
  </defs>
  <g id="Layer_2" data-name="Layer 2">
    <g id="Layer_4" data-name="Layer 4">
      <path class="hat1" d="M201.7,83.09C187,97.91,179,115.34,179.33,136.69c.13,8.23.18,16.46.22,24.69s0,16.45,0,24.68,0,16.46-.07,24.69,0,16.46,0,24.69q52.06.06,104.13.11a22.36,22.36,0,0,0,4-.3,11.81,11.81,0,0,0,2.13-.6,7.78,7.78,0,0,0,.93-.42c3-1.58,4.76-4.77,6.5-10.54,0-7.69,0-15.38,0-23.08-1.15-20,1.09-24.71,23.36-24,17.79.59,35.7,1.13,53.4-.18,5.18-.38,9.09.62,11.92,2.53a12.18,12.18,0,0,1,2.89,2.74,11.94,11.94,0,0,1,1.07,1.65,15.35,15.35,0,0,1,1.45,3.78c.12.5.23,1,.31,1.55a24.09,24.09,0,0,1,.19,5.85,34.06,34.06,0,0,1-1.12,6.23v22.68h0c1.26,5.54,3.73,8.62,6.91,10.31a12.5,12.5,0,0,0,1.4.63,16.23,16.23,0,0,0,2.79.79c4,.79,8.58.43,13,.29a30.82,30.82,0,0,0,.83-3.88Q419,192.82,422.43,154c2.83-33-10-54.14-40.52-67.24C373,82.92,364,79,355,75.22c-30.65-12.87-60.83-26.82-91.86-38.75A20.69,20.69,0,0,0,256,35.1c-2.34,0-4.5-.1-7.19-.1,0,0-3.78,4.67-5.61,6.5-13.8,13.88-27.7,27.66-41.49,41.56Z" />
      <path class="hat2" d="M179.45,235.46h0q0-12.35,0-24.69c0-8.23.06-16.46.07-24.69s0-16.45,0-24.68-.11-16.46-.22-24.69c-.3-21.35,7.66-38.78,22.37-53.6,13.79-13.89,27.69-27.67,41.49-41.55,1.83-1.84,5.61-6.5,5.61-6.5-1.45,0-3.17.07-4.9,0-5.82,0-16.86,4.39-20.78,6.1-32.5,14.14-65.12,28-97.69,42-7.92,3.4-16.15,6.28-23.27,11.31-21.81,15.44-28,37.1-25.1,62.61,1.63,14.54,3.58,29.08,3.55,43.77,2.56,6.55,1.15,13.57,2.41,20.33.87,4.68.7,9.67,1.55,14.46l-.14.07,46.94.08,48.09-.37Z" />
      <path class="hat3" d="M84.57,235.67H78l-43.27,0a8.49,8.49,0,0,1-2.46-.13c-2.45-.69-4.19-5.53-4.27-11.73s1.54-11.55,4-12.3c4.66-1.41,9.33-2.4,14-3.44,10.66-2.36,33.74-7.09,34.61-7.16h0c2.57,6.54,1.15,13.56,2.41,20.33C83.89,225.88,83.71,230.88,84.57,235.67Z" />
      <path class="hat2" d="M390.59,223.52h0V200.84l-93.48-.22c0,7.7,0,15.39,0,23.09h0Q343.85,223.6,390.59,223.52Z" />
    </g>
    <g id="Layer_5" data-name="Layer 5">
      <rect class="blank" width="500" height="500" />
    </g>
  </g>
</svg>