<svg xmlns="http://www.w3.org/2000/svg" viewBox="0 0 500 500">
  <defs>
    <style>.primaryHairColor{fill:currentColor;}.blank{fill:none;}</style>
  </defs>
  <g id="Layer_2" data-name="Layer 2">
    <g id="Layer_4" data-name="Layer 4">
      <path class="primaryHairColor" d="M85,253c0-2.12,0-18.49,0-33,0-6,0-12,0-16,1.09-23.83,12-41.87,33.43-52.93A34.4,34.4,0,0,1,132,146.86c5.78-1.57,11.68-1.4,17.56-1.4q102.68,0,205.34,0c29.35,0,52.38,18,58.84,46.15,1.18,5.17,1.15,10.21,1.22,15.36.1,7.25,0,14.61,0,22,0,5.9-.05,18.1,0,24,8,0,17,1,24,7,1.1-21.16,2.38-42.6,3.43-63.76,1.62-32.73,3.84-65.45,4.55-98.2.57-26-11.64-45.9-33.24-60.21-5.67-3.75-11.9-5.94-18.22-7.87a60.13,60.13,0,0,0-17.73-2.66C283.73,27.37,121,29,109.63,28.66c-13.38-.34-24.56,8.72-34.26,18C57,64.09,51.91,86,53.36,110.48c3,49.73,5.34,99.47,8,149.22C67,255,77,252,85,253Z" />
    </g>
    <g id="Layer_5" data-name="Layer 5">
      <rect class="blank" width="500" height="500" />
    </g>
  </g>
</svg>