<svg xmlns="http://www.w3.org/2000/svg" viewBox="0 0 499 499">
  <defs>
    <style>.head{fill:current;}.blank{fill:none;}</style>
  </defs>
  <g id="Layer_2" data-name="Layer 2">
    <g id="Layer_1-2" data-name="Layer 1">
      <path class="head" d="M415.55,321.1s4.95,56.65-45.65,77.55c-52.8,22-68.2,28.6-76.45,31.35s-22.55,8.25-43.45,8.31a115.8,115.8,0,0,1-33.82-5.14c-3.82-1.17-7-2.3-9.63-3.17-8.25-2.75-23.65-9.35-76.45-31.35-50.6-20.9-45.65-77.55-45.65-77.55S49.8,318.35,49.8,284.25s35.2-33,35.2-33v-73.7c0-45.57,14.9-55.71,47.3-57,2.8-.12,5.73-.16,8.8-.16H358.9c38.5,0,56.1,7.7,56.1,57.2v73.7s35.2-1.1,35.2,33S415.55,321.1,415.55,321.1Z" />
    </g>
    <g id="Layer_5" data-name="Layer 5">
      <rect class="blank" width="499" height="499" />
    </g>
  </g>
</svg>