<svg width="895" height="202" viewBox="0 0 895 202" fill="none" xmlns="http://www.w3.org/2000/svg">
<path d="M2 200C5.83966 151.862 142.819 136.5 275.996 123.265C397.884 111.152 604.677 82.2696 733.083 101.341C782.006 108.607 828.523 121.822 854.717 136.576C875.35 148.198 868.4 155.655 880.324 167.505C894.519 181.612 910.934 204.762 843.194 196.476" stroke="white" stroke-width="3" stroke-linecap="round"/>
<path d="M126.948 2.00767C117.091 16.8561 94.9114 27.5483 145.21 30.8336C167.753 32.3061 199.994 36.9782 199.994 25.2672C199.994 14.2688 193.045 10.3536 154.002 6.38127C130.459 3.98591 64.9467 -1.70355 126.948 5.58607" stroke="white" stroke-width="3" stroke-linecap="round"/>
<path d="M693.364 12.5559C581.199 37.8695 748.46 56.537 754.213 26.6182C759.182 0.78314 665.871 2.00921 596.004 2.00921" stroke="white" stroke-width="3" stroke-linecap="round"/>
</svg>
