<svg id="Layer_1" data-name="Layer 1" xmlns="http://www.w3.org/2000/svg" viewBox="0 0 151.4 187.76"><defs><style>.cls-1{fill:none;stroke:#000;stroke-linecap:round;stroke-linejoin:round;stroke-width:2px;}</style></defs><path class="cls-1" d="M998.4,559.44c1.16-.74,2.45-1.19,3.09-2.72a3.24,3.24,0,0,1,2.43-2.22,3.07,3.07,0,0,0,2-1.69,4.65,4.65,0,0,1,2.23-2c1.29-.54,2-1.64,2.92-2.51a29.17,29.17,0,0,1,2.6-1.72c.75-.58,1.45-1.31,2.63-1.16.41,0,.85-.59,1.08-1.13a2.69,2.69,0,0,1,2.51-1.82,1.15,1.15,0,0,0,.71-.24,3.6,3.6,0,0,1,3-.83,3,3,0,0,0,1.47-.54c1.46-.66,2.25-2.18,4-2.59,1.21-.28,2.44-1.06,3.75-1.44.33-.09.47-.36.63-.7a2.57,2.57,0,0,1,2.49-1.58c.32,0,.78.2.94-.12.74-1.53,2.58-.48,3.51-1.54.13-.15.46-.11.58-.26,1.11-1.4,2.79-1.72,4.35-2.08a3.22,3.22,0,0,0,2-1c.2-.24.42-.09.61-.1,1,0,2.08,0,3.12,0,.82,0,1.68.18,2.19-.82.17-.34.77-.14,1.17-.13a2.59,2.59,0,0,0,2.42-.84c.75-1,2-.7,3-.67,1.63,0,3.19-.42,4.8-.44s2.95-.17,4.44-.15c2.07,0,4.16,0,6.24,0,1.87,0,3.76,0,5.64,0s4,0,6,0c2.68,0,5.36-.08,8,.06a3.3,3.3,0,0,1,2.88,1.5c.08.12.19.36.24.34,1.32-.35,2,1.26,3.24,1.1a2.56,2.56,0,0,1,1.84.66c1.11.77,1.7,2.25,3.2,2.44.37.05.49.33.72.5a6.3,6.3,0,0,0,2.27,1.48c1.21.31,1.8,1.53,2.64,2.37a1.43,1.43,0,0,0,1.21.59c.62-.05.93.27,1.23.83a9.44,9.44,0,0,0,2.26,2.88,1.29,1.29,0,0,0,.83.24c1.16-.09,1.61.61,1.93,1.57.27.78.49,1.71,1.67,1.56a.56.56,0,0,1,.6.36c.58,1.17,1.7,2,1.86,3.47a1.46,1.46,0,0,0,1.14,1.06c1.35,0,1.74,1,2.14,2a6,6,0,0,0,2.54,3.23,1.73,1.73,0,0,1,1.06,1.32,3,3,0,0,0,1.39,2.21,7.71,7.71,0,0,1,2.53,3.34c.55,1.16,1.26,2.22,1.72,3.44s1.64,1.65,2.44,2.51c.2.21.71.28.68.62-.18,1.65,1.35,2.82,1.21,4.44a1.9,1.9,0,0,0,1,2,2,2,0,0,1,1.1,1.89c0,.39.28.52.49.71a1.47,1.47,0,0,1,.47,1.21,5,5,0,0,0,.62,2c.62,1.61,2,3,1.77,4.88a3.27,3.27,0,0,0,.94,2.21,3,3,0,0,1,.63,1.87c0,.3,0,.63.36.72" transform="translate(-997.4 -403.16)"/><path class="cls-1" d="M1135,404.16a8.59,8.59,0,0,0-.48,4.08v26.4c0,.54-.06,1,.46,1.46s.5,1.3.5,2v14.64c0,.64,0,1.25.59,1.69s.37.84.37,1.31v6.72" transform="translate(-997.4 -403.16)"/><path class="cls-1" d="M1021.56,404.52a2.06,2.06,0,0,1,.86,2,4.39,4.39,0,0,0,.75,2.81,11.06,11.06,0,0,1,1.75,5.35,2,2,0,0,1-.48,1.69c1.12.72,1.08,1.8,1.08,2.87v20.4c0,.32-.13.81,0,.93,1.34,1.07.82,2.54.94,3.87" transform="translate(-997.4 -403.16)"/></svg>